<svg xmlns="http://www.w3.org/2000/svg" width="99" height="24" fill="none"><path fill="#1677FF" d="M12 0a12 12 0 1 1 0 24 12 12 0 0 1 0-24m0 6a6 6 0 1 0 0 12 6 6 0 0 0 0-12"/><g fill="#000" fill-opacity=".9" clip-path="url(#clip0_7845_569)"><path d="M37.6 17.4q-4.4-.2-4.6-5.2.2-5 4.6-5.2c2.4 0 4.1 1.5 4.3 3.6h-2q-.4-1.7-2.3-1.8-2.4.1-2.5 3.4.1 3.3 2.5 3.4 1.8-.1 2.3-1.7h2c-.2 2-1.9 3.5-4.3 3.5m9.4-.1q-3.7-.1-3.8-4 .2-3.7 3.8-3.9 3.6.1 3.7 4-.1 3.7-3.7 3.9m0-1.6q1.6-.1 1.6-2.3 0-2.3-1.6-2.4-1.7.1-1.7 2.3 0 2.3 1.7 2.4m5.3 1.4V9.6h2v1.2h.1q.5-1.4 2.1-1.4t2 1.4h.2q.6-1.3 2.3-1.4 2.3.1 2.4 2.5v5.2h-2v-4.7q0-1.3-1.2-1.3-1.2.1-1.3 1.4V17h-2v-4.7q0-1.2-1.3-1.3-1.2 0-1.3 1.5V17zm13.1 2.5v-10h2v1.2q.8-1.3 2.3-1.3 3 .1 3 3.8 0 3.9-3 4-1.5-.1-2.2-1.4h-.1v3.7zm3.6-4q1.7-.1 1.8-2.2 0-2.2-1.8-2.3-1.6.1-1.7 2.2.1 2.2 1.7 2.3m7.5 1.6Q74 17.1 74 15t3-2.3l1.8-.1V12q0-1-1.3-1-1.1 0-1.3.7h-1.9q.4-2.2 3.3-2.3 3 .1 3.1 2.6v5h-2v-1q-.7 1-2.2 1.1M76 15q0 .8 1.1.9 1.6-.1 1.7-1.4v-.6l-1.6.1Q76 14 76 15m6.7 2.1V9.6h2v1.2h.1q.4-1.4 2.2-1.4 2.5 0 2.5 2.8v5h-2v-4.5q0-1.5-1.3-1.6-1.5 0-1.5 1.7V17zm9.5 2.7h-.8v-1.6h.6q1 0 1.2-.8v-.3l-2.6-7.5h2.2l1.6 5.7h.2L96 9.6h2.1L95.7 17q-1 2.8-3.5 2.7"/></g></svg>